# xmcd CD database file
#
# Track frame offsets:
#	150
#	16817
#	32273
#	43322
#	57619
#	69129
#	78786
#	90837
#	98446
#	109864
#
# Disc length: 1769 seconds
#
# Revision: 0
# Processed by: cddbd v1.5.2PL0 Copyright (c) Steve Scherf et al.
# Submitted via: CDex 1.70beta2
#
DISCID=6606e70a
DTITLE=Paul Bowman - Paul Bowman
DYEAR=1900
DGENRE=Country
TTITLE0=I'm Coming Home To You - The G.I. Song
TTITLE1=Sally Was a Good Ole Girl
TTITLE2=Run For Your Life Love Affair
TTITLE3=Running Through The Whiskey
TTITLE4=Real Love
TTITLE5=Tupelo County Jail
TTITLE6=Tulsa Time
TTITLE7=Hurry Up Closing Time
TTITLE8=Sweet Mental Revenge
TTITLE9=Today I Started Loving You Again
EXTD=
EXTT0=
EXTT1=
EXTT2=
EXTT3=
EXTT4=
EXTT5=
EXTT6=
EXTT7=
EXTT8=
EXTT9=
PLAYORDER=
